{"title":"Ship of Theseus 2012.1080p.WEB-DL.x264 . NVEE","uid":11041986,"size":4195126658,"categoryP":"video","categoryS":"hd___movies","magnet":"?xt=urn:btih:b52a2decff98965ed8d727cb9279c2724a5b5e23&amp;dn=Ship+of+Theseus+2012.1080p.WEB-DL.x264+.+NVEE&amp;tr=udp%3A%2F%2Ftracker.openbittorrent.com%3A80&amp;tr=udp%3A%2F%2Fopen.demonii.com%3A1337&amp;tr=udp%3A%2F%2Ftracker.coppersurfer.tk%3A6969&amp;tr=udp%3A%2F%2Fexodus.desync.com%3A6969","seeders":0,"leechers":0,"uploader":".NVEE","files":-1,"time":1410876210,"description":"\n\nQuick note :\nPlease seed to a Share Ratio of at least 2.2\nIf you require a torrent release I have posted in the past, not seeding,...\nPlease do not hesitate to inform me in any means you find fit to do so.\nTorrent requests also &quot;Always Welcome.&quot;\n\n\nFULL_INFOs\n\n99.99% --- SYNCED GUARANTEED \n\n&quot;Totally scrutinized / analyzed to be a verified torrent.&quot;\n___________________________________________\n\nSource : WEB-DL ~ 1080p\n\n\n\nSpoken Language : English/Hindi\n\nAudio : 2 ~ Channels Only\n\n\nSubs Info :\n\nEmbedded ~ English\n\nAll .srt UTF-8 .idx &amp; .ass subs can be turned On/Off\n_____________________________________\n---------------------------------------------------------------------------------\n\nGeneral Metadata\n\nComplete name : Ship of Theseus 2012.1080p.WEB-DL.x264 . NVEE.mp4\nFormat : MPEG-4\nFormat profile : Base Media / Version 2\nCodec ID : mp42\nFile size : 3.91 GiB\nDuration : 2h 26mn\nOverall bit rate : 3 830 Kbps\nEncoded date : UTC 2014-01-13 20:42:50\nTagged date : UTC 2014-01-13 20:44:14\n\n\nVideo\n\nID : 1\nFormat : AVC\nFormat/Info : Advanced Video Codec\nFormat profile : &lt;a class=&quot;__cf_email__&quot; href=&quot;/cdn-cgi/l/email-protection&quot; data-cfemail=&quot;a1e3c0d2c4cdc8cfc4e1ed958f91&quot;&gt;[email&amp;#160;protected]&lt;/a&gt;&lt;script data-cfhash='f9e31' type=&quot;text/javascript&quot;&gt;\n/* &lt;![CDATA[ */!function(){try{var t=&quot;currentScript&quot;in document?document.currentScript:function(){for(var t=document.getElementsByTagName(&quot;script&quot;),e=t.length;e--;)if(t[e].getAttribute(&quot;data-cfhash&quot;))return t[e]}();if(t&amp;&amp;t.previousSibling){var e,r,n,i,c=t.previousSibling,a=c.getAttribute(&quot;data-cfemail&quot;);if(a){for(e=&quot;&quot;,r=parseInt(a.substr(0,2),16),n=2;a.length-n;n+=2)i=parseInt(a.substr(n,2),16)^r,e+=String.fromCharCode(i);e=document.createTextNode(e),c.parentNode.replaceChild(e,c)}t.parentNode.removeChild(t);}}catch(u){}}()/* ]]&gt; */&lt;/script&gt;\nFormat settings, CABAC : No\nFormat settings, ReFrames : 2 frames\nFormat settings, GOP : M=1, N=120\nCodec ID : avc1\nCodec ID/Info : Advanced Video Coding\nDuration : 2h 26mn\nBit rate : 3 667 Kbps\nWidth : 1 920 pixels\nHeight : 1 080 pixels\nDisplay aspect ratio : 16:9\nFrame rate mode : Constant\nFrame rate : 24.000 fps\nColor space : YUV\nChroma subsampling : 4:2:0\nBit depth : 8 bits\nScan type : Progressive\nBits/(Pixel*Frame) : 0.074\nStream size : 3.74 GiB (96%)\nLanguage : English\nEncoded date : UTC 2014-01-13 20:42:44\nTagged date : UTC 2014-01-13 20:44:14\nColor primaries : BT.709\nTransfer characteristics : BT.709\nMatrix coefficients : BT.709\n\n\nAudio\n\nID : 2\nFormat : AAC\nFormat/Info : Advanced Audio Codec\nFormat profile : LC\nCodec ID : 40\nDuration : 2h 26mn\nBit rate mode : Constant\nBit rate : 160 Kbps\nChannel(s) : 2 channels\nChannel positions : Front: L R\nSampling rate : 48.0 KHz\nCompression mode : Lossy\nStream size : 167 MiB (4%)\nLanguage : English\nEncoded date : UTC 2014-01-13 20:42:44\nTagged date : UTC 2014-01-13 20:44:14\n\n\n\nEnj0y !","torrent":{"xt":"urn:btih:b52a2decff98965ed8d727cb9279c2724a5b5e23","amp;dn":"Ship+of+Theseus+2012.1080p.WEB-DL.x264+.+NVEE","amp;tr":["udp%3A%2F%2Ftracker.openbittorrent.com%3A80","udp%3A%2F%2Fopen.demonii.com%3A1337","udp%3A%2F%2Ftracker.coppersurfer.tk%3A6969","udp%3A%2F%2Fexodus.desync.com%3A6969"],"infoHash":"b52a2decff98965ed8d727cb9279c2724a5b5e23","infoHashBuffer":{"type":"Buffer","data":[181,42,45,236,255,152,150,94,216,215,39,203,146,121,194,114,74,91,94,35]},"announce":[],"urlList":[]}}